<svg width="3252.888672" height="1810.708496" viewBox="0 0 3252.89 1810.71" fill="none" xmlns="http://www.w3.org/2000/svg" xmlns:xlink="http://www.w3.org/1999/xlink">
	<desc>
			Created with Pixso.
	</desc>
	<defs/>
	<path id="Vector 17" d="M1776 601.25C1805.52 607.59 1832.39 618.36 1853.22 635.29C1949.58 713.62 1950.21 817.18 2044.96 881.9C2139.72 946.61 2217.58 1032.76 2447.87 919.4C2678.17 806.05 2729.71 801.29 2868.3 827.41C3006.88 853.53 3158.49 809.61 3248.19 725.91" stroke="#45C436" stroke-opacity="0.420000" stroke-width="1.000000" stroke-linejoin="round" stroke-linecap="round"/>
	<path id="Vector 18" d="M1535.44 620.27C1474.75 672.15 1362.17 746.63 1275.03 730.65C1152.89 708.25 1102.57 617.74 988.38 606.51C874.19 595.27 764.52 557.14 617.01 767.2C469.5 977.26 426.59 1006.22 292.5 1049.89C158.41 1093.56 46.55 1204.93 8.09 1321.44" stroke="#45C436" stroke-opacity="0.420000" stroke-width="1.000000" stroke-linejoin="round" stroke-linecap="round"/>
	<ellipse id="Ellipse 23" cx="1652.000000" cy="604.499756" rx="350.500000" ry="84.000000" stroke="#45C436" stroke-opacity="1.000000" stroke-width="1.000000"/>
</svg>
