<svg width="17.000000" height="17.000000" viewBox="0 0 17 17" fill="none" xmlns="http://www.w3.org/2000/svg" xmlns:xlink="http://www.w3.org/1999/xlink">
	<desc>
			Created with Pixso.
	</desc>
	<defs>
		<clipPath id="clip1_475">
			<rect id="envelope 4" width="17.000000" height="17.000000" fill="white" fill-opacity="0"/>
		</clipPath>
	</defs>
	<rect id="envelope 4" width="17.000000" height="17.000000" fill="#FFFFFF" fill-opacity="1.000000"/>
	<g clip-path="url(#clip1_475)">
		<path id="Vector" d="M15.4 2.12L1.59 2.12C0.71 2.12 0 2.83 0 3.71L0 13.28C0 14.16 0.71 14.87 1.59 14.87L15.4 14.87C16.28 14.87 17 14.16 17 13.28L17 3.71C17 2.83 16.28 2.12 15.4 2.12ZM15.4 3.18C15.47 3.18 15.54 3.2 15.6 3.22L8.5 9.39L1.39 3.22C1.45 3.2 1.52 3.18 1.59 3.18L15.4 3.18ZM15.4 13.81L1.59 13.81C1.3 13.81 1.06 13.57 1.06 13.28L1.06 4.35L8.15 10.49C8.25 10.58 8.37 10.62 8.5 10.62C8.62 10.62 8.74 10.58 8.84 10.49L15.93 4.35L15.93 13.28C15.93 13.57 15.69 13.81 15.4 13.81Z" fill="#222222" fill-opacity="1.000000" fill-rule="nonzero"/>
	</g>
</svg>
