<svg width="16.000000" height="16.000000" viewBox="0 0 16 16" fill="none" xmlns="http://www.w3.org/2000/svg" xmlns:xlink="http://www.w3.org/1999/xlink">
	<desc>
			Created with Pixso.
	</desc>
	<defs>
		<clipPath id="clip1_469">
			<rect id="instagram-sketched 2" width="16.000000" height="16.000000" fill="white" fill-opacity="0"/>
		</clipPath>
	</defs>
	<rect id="instagram-sketched 2" width="16.000000" height="16.000000" fill="#FFFFFF" fill-opacity="0"/>
	<g clip-path="url(#clip1_469)">
		<path id="Vector" d="M8 3.89C5.73 3.89 3.89 5.73 3.89 7.99C3.89 10.26 5.73 12.1 8 12.1C10.27 12.1 12.1 10.26 12.1 7.99C12.1 5.72 10.26 3.89 8 3.89ZM8 10.66C6.52 10.66 5.33 9.46 5.33 7.99C5.33 6.52 6.53 5.33 8 5.33C9.47 5.33 10.66 6.52 10.66 7.99C10.66 9.46 9.47 10.66 8 10.66Z" fill="#222222" fill-opacity="1.000000" fill-rule="nonzero"/>
		<path id="Vector" d="M11.29 0.05C9.82 -0.02 6.18 -0.02 4.7 0.05C3.41 0.11 2.27 0.42 1.34 1.34C-0.19 2.88 0 4.95 0 7.99C0 11.1 -0.17 13.13 1.34 14.65C2.89 16.19 4.99 15.99 8 15.99C11.08 15.99 12.14 15.99 13.23 15.57C14.72 14.99 15.83 13.67 15.94 11.29C16.01 9.82 16.01 6.17 15.94 4.7C15.81 1.89 14.3 0.18 11.29 0.05ZM13.62 13.63C12.61 14.64 11.22 14.55 7.98 14.55C4.64 14.55 3.31 14.6 2.33 13.62C1.21 12.5 1.41 10.7 1.41 7.98C1.41 4.3 1.03 1.65 4.73 1.46C5.58 1.43 5.83 1.42 7.97 1.42L8 1.44C11.55 1.44 14.34 1.06 14.51 4.76C14.54 5.6 14.55 5.86 14.55 7.99C14.55 11.29 14.61 12.63 13.62 13.63Z" fill="#222222" fill-opacity="1.000000" fill-rule="nonzero"/>
		<path id="Vector" d="M13.23 3.72C13.23 4.25 12.8 4.68 12.27 4.68C11.74 4.68 11.31 4.25 11.31 3.72C11.31 3.2 11.74 2.77 12.27 2.77C12.8 2.77 13.23 3.2 13.23 3.72Z" fill="#222222" fill-opacity="1.000000" fill-rule="evenodd"/>
	</g>
</svg>
