<svg width="19.000000" height="19.000000" viewBox="0 0 19 19" fill="none" xmlns="http://www.w3.org/2000/svg" xmlns:xlink="http://www.w3.org/1999/xlink">
	<desc>
			Created with Pixso.
	</desc>
	<defs>
		<clipPath id="clip1_467">
			<rect id="Whatsapp (3) 3" width="19.000000" height="19.000000" fill="white" fill-opacity="0"/>
		</clipPath>
	</defs>
	<rect id="Whatsapp (3) 3" width="19.000000" height="19.000000" fill="#FFFFFF" fill-opacity="0"/>
	<g clip-path="url(#clip1_467)">
		<path id="WhatsApp" d="M18.04 9.35C18.04 13.95 14.29 17.68 9.65 17.68C8.23 17.68 6.84 17.33 5.59 16.65L0.94 18.12L2.46 13.65C1.67 12.36 1.25 10.87 1.26 9.35C1.26 4.75 5.01 1.02 9.65 1.02C14.29 1.02 18.04 4.75 18.04 9.35ZM9.65 2.35C5.76 2.35 2.59 5.49 2.59 9.35C2.59 10.88 3.09 12.3 3.94 13.46L3.06 16.06L5.77 15.2C6.92 15.95 8.27 16.36 9.65 16.36C13.54 16.36 16.71 13.21 16.71 9.35C16.71 5.49 13.54 2.35 9.65 2.35ZM13.89 11.27C13.84 11.19 13.7 11.13 13.5 11.03C13.29 10.93 12.28 10.44 12.09 10.37C11.9 10.3 11.76 10.27 11.63 10.47C11.49 10.67 11.09 11.13 10.97 11.27C10.85 11.41 10.73 11.42 10.53 11.32C10.32 11.22 9.66 11 8.87 10.31C8.26 9.77 7.85 9.1 7.73 8.89C7.61 8.69 7.72 8.58 7.82 8.48C7.91 8.39 8.03 8.24 8.13 8.12C8.23 8 8.27 7.92 8.33 7.78C8.4 7.64 8.37 7.52 8.32 7.42C8.26 7.32 7.85 6.32 7.68 5.91C7.51 5.5 7.34 5.57 7.22 5.57C7.1 5.57 6.96 5.55 6.82 5.55C6.69 5.55 6.46 5.6 6.28 5.8C6.09 6.01 5.56 6.5 5.56 7.51C5.56 8.51 6.29 9.48 6.4 9.62C6.5 9.76 7.82 11.88 9.91 12.7C12 13.52 12 13.25 12.38 13.21C12.76 13.18 13.6 12.72 13.77 12.24C13.94 11.76 13.94 11.36 13.89 11.27Z" fill="#222222" fill-opacity="1.000000" fill-rule="nonzero"/>
	</g>
</svg>
