<svg width="15.000000" height="15.000000" viewBox="0 0 15 15" fill="none" xmlns="http://www.w3.org/2000/svg" xmlns:xlink="http://www.w3.org/1999/xlink">
	<desc>
			Created with Pixso.
	</desc>
	<defs>
		<clipPath id="clip1_528">
			<rect id="call в 2" width="15.000000" height="15.000000" fill="white" fill-opacity="0"/>
		</clipPath>
	</defs>
	<rect id="call в 2" width="15.000000" height="15.000000" fill="#FFFFFF" fill-opacity="0"/>
	<g clip-path="url(#clip1_528)">
		<path id="Vector" d="M13.79 11.84C12.87 11.84 11.97 11.7 11.12 11.41C10.7 11.27 10.18 11.4 9.93 11.67L8.24 12.94C6.29 11.89 5.08 10.69 4.05 8.75L5.29 7.11C5.61 6.79 5.72 6.32 5.58 5.88C5.3 5.02 5.16 4.12 5.16 3.2C5.16 2.54 4.62 2 3.95 2L1.2 2C0.54 2 0 2.54 0 3.2C0 10.81 6.18 17 13.79 17C14.46 17 15 16.45 15 15.79L15 13.04C15 12.38 14.46 11.84 13.79 11.84Z" fill="#C5C5C5" fill-opacity="1.000000" fill-rule="nonzero"/>
	</g>
</svg>
