<svg width="24.000000" height="24.000000" viewBox="0 0 24 24" fill="none" xmlns="http://www.w3.org/2000/svg" xmlns:xlink="http://www.w3.org/1999/xlink">
	<desc>
			Created with Pixso.
	</desc>
	<defs>
		<clipPath id="clip1_1251">
			<rect id="magnifying-glass (1) 3" width="24.000000" height="24.000000" fill="white" fill-opacity="0"/>
		</clipPath>
	</defs>
	<rect id="magnifying-glass (1) 3" width="24.000000" height="24.000000" fill="#FFFFFF" fill-opacity="0"/>
	<g clip-path="url(#clip1_1251)">
		<path id="Vector" d="M23 22L17.5 16.5C18.86 14.83 19.87 12.52 19.87 10.19C19.87 4.85 15.53 0.51 10.19 0.51C4.84 0.51 0.51 4.85 0.51 10.19C0.51 15.53 4.84 19.87 10.19 19.87C12.52 19.87 14.83 18.86 16.5 17.5L22 23C22.37 23.37 22.82 23.57 23.2 23.2C23.57 22.83 23.37 22.37 23 22ZM10.19 18.64C5.91 18.64 1.75 14.47 1.75 10.19C1.75 5.92 5.91 1.75 10.19 1.75C14.47 1.75 18.64 5.92 18.64 10.19C18.64 14.47 14.47 18.64 10.19 18.64Z" fill="#4B4B4B" fill-opacity="1.000000" fill-rule="nonzero"/>
	</g>
</svg>
