<svg width="15.000000" height="15.000000" viewBox="0 0 15 15" fill="none" xmlns="http://www.w3.org/2000/svg" xmlns:xlink="http://www.w3.org/1999/xlink">
	<desc>
			Created with Pixso.
	</desc>
	<defs/>
	<path id="Vector" d="M13.79 9.84C12.87 9.84 11.97 9.7 11.12 9.41C10.7 9.27 10.18 9.4 9.93 9.67L8.24 10.94C6.29 9.89 5.08 8.69 4.05 6.75L5.29 5.11C5.61 4.79 5.72 4.32 5.58 3.88C5.3 3.02 5.16 2.12 5.16 1.2C5.16 0.53 4.62 0 3.95 0L1.2 0C0.54 0 0 0.53 0 1.2C0 8.81 6.18 15 13.79 15C14.46 15 15 14.46 15 13.79L15 11.04C15 10.38 14.46 9.84 13.79 9.84Z" fill="#C5C5C5" fill-opacity="1.000000" fill-rule="nonzero"/>
</svg>
