<svg width="17.000000" height="17.000000" viewBox="0 0 17 17" fill="none" xmlns="http://www.w3.org/2000/svg" xmlns:xlink="http://www.w3.org/1999/xlink">
	<desc>
			Created with Pixso.
	</desc>
	<defs>
		<clipPath id="clip1_8547">
			<rect id="call в 1" width="17.000000" height="17.000000" fill="white" fill-opacity="0"/>
		</clipPath>
	</defs>
	<rect id="call в 1" width="17.000000" height="17.000000" fill="#FFFFFF" fill-opacity="0"/>
	<g clip-path="url(#clip1_8547)">
		<path id="Vector" d="M15.63 11.15C14.59 11.15 13.57 10.99 12.6 10.67C12.13 10.51 11.54 10.66 11.25 10.96L9.34 12.4C7.12 11.21 5.76 9.85 4.59 7.65L5.99 5.79C6.36 5.42 6.49 4.89 6.33 4.4C6.01 3.42 5.85 2.4 5.85 1.36C5.85 0.61 5.23 0 4.48 0L1.36 0C0.61 0 0 0.61 0 1.36C0 9.98 7.01 17 15.63 17C16.38 17 17 16.38 17 15.63L17 12.52C17 11.77 16.38 11.15 15.63 11.15Z" fill="#FFD25A" fill-opacity="1.000000" fill-rule="nonzero"/>
	</g>
</svg>
