<svg width="21.000000" height="21.000000" viewBox="0 0 21 21" fill="none" xmlns="http://www.w3.org/2000/svg" xmlns:xlink="http://www.w3.org/1999/xlink">
	<desc>
			Created with Pixso.
	</desc>
	<defs>
		<clipPath id="clip1_1231">
			<rect id="like 1" width="21.000000" height="21.000000" fill="white" fill-opacity="0"/>
		</clipPath>
	</defs>
	<rect id="like 1" width="21.000000" height="21.000000" fill="#FFFFFF" fill-opacity="0"/>
	<g clip-path="url(#clip1_1231)">
		<path id="Vector" d="M19.46 3.04C18.43 1.87 16.99 1.22 15.42 1.22C13.2 1.22 11.8 2.54 11.02 3.65C10.81 3.94 10.64 4.22 10.5 4.5C10.35 4.22 10.18 3.94 9.97 3.65C9.19 2.54 7.79 1.22 5.57 1.22C4 1.22 2.56 1.87 1.53 3.04C0.54 4.16 0 5.66 0 7.27C0 9.02 0.68 10.64 2.14 12.38C3.45 13.94 5.33 15.55 7.52 17.4C8.33 18.1 9.17 18.81 10.06 19.6L10.09 19.62C10.21 19.72 10.35 19.77 10.5 19.77C10.64 19.77 10.78 19.72 10.9 19.62L10.93 19.6C11.82 18.81 12.66 18.1 13.48 17.4C15.66 15.55 17.54 13.94 18.85 12.38C20.31 10.64 21 9.02 21 7.27C21 5.66 20.45 4.16 19.46 3.04ZM12.68 16.47C11.98 17.06 11.26 17.68 10.5 18.34C9.73 17.68 9.01 17.06 8.31 16.47C4.05 12.83 1.23 10.43 1.23 7.27C1.23 5.96 1.66 4.75 2.45 3.85C3.25 2.95 4.36 2.45 5.57 2.45C7.26 2.45 8.35 3.49 8.97 4.36C9.52 5.14 9.81 5.93 9.91 6.23C9.99 6.49 10.23 6.66 10.5 6.66C10.76 6.66 11 6.49 11.08 6.23C11.18 5.93 11.47 5.14 12.02 4.36C12.64 3.49 13.73 2.45 15.42 2.45C16.63 2.45 17.74 2.95 18.54 3.85C19.33 4.75 19.76 5.96 19.76 7.27C19.76 10.43 16.95 12.83 12.68 16.47Z" fill="#222222" fill-opacity="1.000000" fill-rule="nonzero"/>
	</g>
</svg>
