<svg width="68.291260" height="147.000000" viewBox="0 0 68.2913 147" fill="none" xmlns="http://www.w3.org/2000/svg" xmlns:xlink="http://www.w3.org/1999/xlink">
	<desc>
			Created with Pixso.
	</desc>
	<defs/>
	<path id="Vector" d="M66.94 2.7C66.19 2.7 65.59 2.09 65.59 1.35C65.59 0.6 66.19 0 66.94 0C67.68 0 68.29 0.6 68.29 1.35C68.29 2.09 67.68 2.7 66.94 2.7ZM66.94 15.81C66.19 15.81 65.59 15.21 65.59 14.46C65.59 13.72 66.19 13.11 66.94 13.11C67.68 13.11 68.29 13.72 68.29 14.46C68.29 15.21 67.68 15.81 66.94 15.81ZM66.94 28.93C66.19 28.93 65.59 28.33 65.59 27.58C65.59 26.84 66.19 26.23 66.94 26.23C67.68 26.23 68.29 26.84 68.29 27.58C68.29 28.33 67.68 28.93 66.94 28.93ZM66.94 42.05C66.19 42.05 65.59 41.45 65.59 40.7C65.59 39.95 66.19 39.35 66.94 39.35C67.68 39.35 68.29 39.95 68.29 40.7C68.29 41.45 67.68 42.05 66.94 42.05ZM66.94 55.17C66.19 55.17 65.59 54.56 65.59 53.82C65.59 53.07 66.19 52.47 66.94 52.47C67.68 52.47 68.29 53.07 68.29 53.82C68.29 54.56 67.68 55.17 66.94 55.17ZM66.94 68.29C66.19 68.29 65.59 67.68 65.59 66.94C65.59 66.19 66.19 65.59 66.94 65.59C67.68 65.59 68.29 66.19 68.29 66.94C68.29 67.68 67.68 68.29 66.94 68.29ZM66.94 81.4C66.19 81.4 65.59 80.8 65.59 80.05C65.59 79.31 66.19 78.7 66.94 78.7C67.68 78.7 68.29 79.31 68.29 80.05C68.29 80.8 67.68 81.4 66.94 81.4ZM66.94 94.52C66.19 94.52 65.59 93.92 65.59 93.17C65.59 92.43 66.19 91.82 66.94 91.82C67.68 91.82 68.29 92.43 68.29 93.17C68.29 93.92 67.68 94.52 66.94 94.52ZM66.94 107.64C66.19 107.64 65.59 107.04 65.59 106.29C65.59 105.54 66.19 104.94 66.94 104.94C67.68 104.94 68.29 105.54 68.29 106.29C68.29 107.04 67.68 107.64 66.94 107.64ZM66.94 120.76C66.19 120.76 65.59 120.15 65.59 119.41C65.59 118.66 66.19 118.06 66.94 118.06C67.68 118.06 68.29 118.66 68.29 119.41C68.29 120.15 67.68 120.76 66.94 120.76ZM66.94 133.88C66.19 133.88 65.59 133.27 65.59 132.53C65.59 131.78 66.19 131.18 66.94 131.18C67.68 131.18 68.29 131.78 68.29 132.53C68.29 133.27 67.68 133.88 66.94 133.88ZM66.94 147C66.19 147 65.59 146.39 65.59 145.64C65.59 144.9 66.19 144.29 66.94 144.29C67.68 144.29 68.29 144.9 68.29 145.64C68.29 146.39 67.68 147 66.94 147ZM53.82 2.7C53.07 2.7 52.47 2.09 52.47 1.35C52.47 0.6 53.07 0 53.82 0C54.56 0 55.17 0.6 55.17 1.35C55.17 2.09 54.56 2.7 53.82 2.7ZM53.82 15.81C53.07 15.81 52.47 15.21 52.47 14.46C52.47 13.72 53.07 13.11 53.82 13.11C54.56 13.11 55.17 13.72 55.17 14.46C55.17 15.21 54.56 15.81 53.82 15.81ZM53.82 28.93C53.07 28.93 52.47 28.33 52.47 27.58C52.47 26.84 53.07 26.23 53.82 26.23C54.56 26.23 55.17 26.84 55.17 27.58C55.17 28.33 54.56 28.93 53.82 28.93ZM53.82 42.05C53.07 42.05 52.47 41.45 52.47 40.7C52.47 39.95 53.07 39.35 53.82 39.35C54.56 39.35 55.17 39.95 55.17 40.7C55.17 41.45 54.56 42.05 53.82 42.05ZM53.82 55.17C53.07 55.17 52.47 54.56 52.47 53.82C52.47 53.07 53.07 52.47 53.82 52.47C54.56 52.47 55.17 53.07 55.17 53.82C55.17 54.56 54.56 55.17 53.82 55.17ZM53.82 68.29C53.07 68.29 52.47 67.68 52.47 66.94C52.47 66.19 53.07 65.59 53.82 65.59C54.56 65.59 55.17 66.19 55.17 66.94C55.17 67.68 54.56 68.29 53.82 68.29ZM53.82 81.4C53.07 81.4 52.47 80.8 52.47 80.05C52.47 79.31 53.07 78.7 53.82 78.7C54.56 78.7 55.17 79.31 55.17 80.05C55.17 80.8 54.56 81.4 53.82 81.4ZM53.82 94.52C53.07 94.52 52.47 93.92 52.47 93.17C52.47 92.43 53.07 91.82 53.82 91.82C54.56 91.82 55.17 92.43 55.17 93.17C55.17 93.92 54.56 94.52 53.82 94.52ZM53.82 107.64C53.07 107.64 52.47 107.04 52.47 106.29C52.47 105.54 53.07 104.94 53.82 104.94C54.56 104.94 55.17 105.54 55.17 106.29C55.17 107.04 54.56 107.64 53.82 107.64ZM53.82 120.76C53.07 120.76 52.47 120.15 52.47 119.41C52.47 118.66 53.07 118.06 53.82 118.06C54.56 118.06 55.17 118.66 55.17 119.41C55.17 120.15 54.56 120.76 53.82 120.76ZM53.82 133.88C53.07 133.88 52.47 133.27 52.47 132.53C52.47 131.78 53.07 131.18 53.82 131.18C54.56 131.18 55.17 131.78 55.17 132.53C55.17 133.27 54.56 133.88 53.82 133.88ZM53.82 147C53.07 147 52.47 146.39 52.47 145.64C52.47 144.9 53.07 144.29 53.82 144.29C54.56 144.29 55.17 144.9 55.17 145.64C55.17 146.39 54.56 147 53.82 147ZM40.7 2.7C39.95 2.7 39.35 2.09 39.35 1.35C39.35 0.6 39.95 0 40.7 0C41.45 0 42.05 0.6 42.05 1.35C42.05 2.09 41.45 2.7 40.7 2.7ZM40.7 15.81C39.95 15.81 39.35 15.21 39.35 14.46C39.35 13.72 39.95 13.11 40.7 13.11C41.45 13.11 42.05 13.72 42.05 14.46C42.05 15.21 41.45 15.81 40.7 15.81ZM40.7 28.93C39.95 28.93 39.35 28.33 39.35 27.58C39.35 26.84 39.95 26.23 40.7 26.23C41.45 26.23 42.05 26.84 42.05 27.58C42.05 28.33 41.45 28.93 40.7 28.93ZM40.7 42.05C39.95 42.05 39.35 41.45 39.35 40.7C39.35 39.95 39.95 39.35 40.7 39.35C41.45 39.35 42.05 39.95 42.05 40.7C42.05 41.45 41.45 42.05 40.7 42.05ZM40.7 55.17C39.95 55.17 39.35 54.56 39.35 53.82C39.35 53.07 39.95 52.47 40.7 52.47C41.45 52.47 42.05 53.07 42.05 53.82C42.05 54.56 41.45 55.17 40.7 55.17ZM40.7 68.29C39.95 68.29 39.35 67.68 39.35 66.94C39.35 66.19 39.95 65.59 40.7 65.59C41.45 65.59 42.05 66.19 42.05 66.94C42.05 67.68 41.45 68.29 40.7 68.29ZM40.7 81.4C39.95 81.4 39.35 80.8 39.35 80.05C39.35 79.31 39.95 78.7 40.7 78.7C41.45 78.7 42.05 79.31 42.05 80.05C42.05 80.8 41.45 81.4 40.7 81.4ZM40.7 94.52C39.95 94.52 39.35 93.92 39.35 93.17C39.35 92.43 39.95 91.82 40.7 91.82C41.45 91.82 42.05 92.43 42.05 93.17C42.05 93.92 41.45 94.52 40.7 94.52ZM40.7 107.64C39.95 107.64 39.35 107.04 39.35 106.29C39.35 105.54 39.95 104.94 40.7 104.94C41.45 104.94 42.05 105.54 42.05 106.29C42.05 107.04 41.45 107.64 40.7 107.64ZM40.7 120.76C39.95 120.76 39.35 120.15 39.35 119.41C39.35 118.66 39.95 118.06 40.7 118.06C41.45 118.06 42.05 118.66 42.05 119.41C42.05 120.15 41.45 120.76 40.7 120.76ZM40.7 133.88C39.95 133.88 39.35 133.27 39.35 132.53C39.35 131.78 39.95 131.18 40.7 131.18C41.45 131.18 42.05 131.78 42.05 132.53C42.05 133.27 41.45 133.88 40.7 133.88ZM40.7 147C39.95 147 39.35 146.39 39.35 145.64C39.35 144.9 39.95 144.29 40.7 144.29C41.45 144.29 42.05 144.9 42.05 145.64C42.05 146.39 41.45 147 40.7 147ZM27.58 2.7C26.84 2.7 26.23 2.09 26.23 1.35C26.23 0.6 26.84 0 27.58 0C28.33 0 28.93 0.6 28.93 1.35C28.93 2.09 28.33 2.7 27.58 2.7ZM27.58 15.81C26.84 15.81 26.23 15.21 26.23 14.46C26.23 13.72 26.84 13.11 27.58 13.11C28.33 13.11 28.93 13.72 28.93 14.46C28.93 15.21 28.33 15.81 27.58 15.81ZM27.58 28.93C26.84 28.93 26.23 28.33 26.23 27.58C26.23 26.84 26.84 26.23 27.58 26.23C28.33 26.23 28.93 26.84 28.93 27.58C28.93 28.33 28.33 28.93 27.58 28.93ZM27.58 42.05C26.84 42.05 26.23 41.45 26.23 40.7C26.23 39.95 26.84 39.35 27.58 39.35C28.33 39.35 28.93 39.95 28.93 40.7C28.93 41.45 28.33 42.05 27.58 42.05ZM27.58 55.17C26.84 55.17 26.23 54.56 26.23 53.82C26.23 53.07 26.84 52.47 27.58 52.47C28.33 52.47 28.93 53.07 28.93 53.82C28.93 54.56 28.33 55.17 27.58 55.17ZM27.58 68.29C26.84 68.29 26.23 67.68 26.23 66.94C26.23 66.19 26.84 65.59 27.58 65.59C28.33 65.59 28.93 66.19 28.93 66.94C28.93 67.68 28.33 68.29 27.58 68.29ZM27.58 81.4C26.84 81.4 26.23 80.8 26.23 80.05C26.23 79.31 26.84 78.7 27.58 78.7C28.33 78.7 28.93 79.31 28.93 80.05C28.93 80.8 28.33 81.4 27.58 81.4ZM27.58 94.52C26.84 94.52 26.23 93.92 26.23 93.17C26.23 92.43 26.84 91.82 27.58 91.82C28.33 91.82 28.93 92.43 28.93 93.17C28.93 93.92 28.33 94.52 27.58 94.52ZM27.58 107.64C26.84 107.64 26.23 107.04 26.23 106.29C26.23 105.54 26.84 104.94 27.58 104.94C28.33 104.94 28.93 105.54 28.93 106.29C28.93 107.04 28.33 107.64 27.58 107.64ZM27.58 120.76C26.84 120.76 26.23 120.15 26.23 119.41C26.23 118.66 26.84 118.06 27.58 118.06C28.33 118.06 28.93 118.66 28.93 119.41C28.93 120.15 28.33 120.76 27.58 120.76ZM27.58 133.88C26.84 133.88 26.23 133.27 26.23 132.53C26.23 131.78 26.84 131.18 27.58 131.18C28.33 131.18 28.93 131.78 28.93 132.53C28.93 133.27 28.33 133.88 27.58 133.88ZM27.58 147C26.84 147 26.23 146.39 26.23 145.64C26.23 144.9 26.84 144.29 27.58 144.29C28.33 144.29 28.93 144.9 28.93 145.64C28.93 146.39 28.33 147 27.58 147ZM14.46 2.7C13.72 2.7 13.11 2.09 13.11 1.35C13.11 0.6 13.72 0 14.46 0C15.21 0 15.81 0.6 15.81 1.35C15.81 2.09 15.21 2.7 14.46 2.7ZM14.46 15.81C13.72 15.81 13.11 15.21 13.11 14.46C13.11 13.72 13.72 13.11 14.46 13.11C15.21 13.11 15.81 13.72 15.81 14.46C15.81 15.21 15.21 15.81 14.46 15.81ZM14.46 28.93C13.72 28.93 13.11 28.33 13.11 27.58C13.11 26.84 13.72 26.23 14.46 26.23C15.21 26.23 15.81 26.84 15.81 27.58C15.81 28.33 15.21 28.93 14.46 28.93ZM14.46 42.05C13.72 42.05 13.11 41.45 13.11 40.7C13.11 39.95 13.72 39.35 14.46 39.35C15.21 39.35 15.81 39.95 15.81 40.7C15.81 41.45 15.21 42.05 14.46 42.05ZM14.46 55.17C13.72 55.17 13.11 54.56 13.11 53.82C13.11 53.07 13.72 52.47 14.46 52.47C15.21 52.47 15.81 53.07 15.81 53.82C15.81 54.56 15.21 55.17 14.46 55.17ZM14.46 68.29C13.72 68.29 13.11 67.68 13.11 66.94C13.11 66.19 13.72 65.59 14.46 65.59C15.21 65.59 15.81 66.19 15.81 66.94C15.81 67.68 15.21 68.29 14.46 68.29ZM14.46 81.4C13.72 81.4 13.11 80.8 13.11 80.05C13.11 79.31 13.72 78.7 14.46 78.7C15.21 78.7 15.81 79.31 15.81 80.05C15.81 80.8 15.21 81.4 14.46 81.4ZM14.46 94.52C13.72 94.52 13.11 93.92 13.11 93.17C13.11 92.43 13.72 91.82 14.46 91.82C15.21 91.82 15.81 92.43 15.81 93.17C15.81 93.92 15.21 94.52 14.46 94.52ZM14.46 107.64C13.72 107.64 13.11 107.04 13.11 106.29C13.11 105.54 13.72 104.94 14.46 104.94C15.21 104.94 15.81 105.54 15.81 106.29C15.81 107.04 15.21 107.64 14.46 107.64ZM14.46 120.76C13.72 120.76 13.11 120.15 13.11 119.41C13.11 118.66 13.72 118.06 14.46 118.06C15.21 118.06 15.81 118.66 15.81 119.41C15.81 120.15 15.21 120.76 14.46 120.76ZM14.46 133.88C13.72 133.88 13.11 133.27 13.11 132.53C13.11 131.78 13.72 131.18 14.46 131.18C15.21 131.18 15.81 131.78 15.81 132.53C15.81 133.27 15.21 133.88 14.46 133.88ZM14.46 147C13.72 147 13.11 146.39 13.11 145.64C13.11 144.9 13.72 144.29 14.46 144.29C15.21 144.29 15.81 144.9 15.81 145.64C15.81 146.39 15.21 147 14.46 147ZM1.35 2.7C0.6 2.7 0 2.09 0 1.35C0 0.6 0.6 0 1.35 0C2.09 0 2.7 0.6 2.7 1.35C2.7 2.09 2.09 2.7 1.35 2.7ZM1.35 15.81C0.6 15.81 0 15.21 0 14.46C0 13.72 0.6 13.11 1.35 13.11C2.09 13.11 2.7 13.72 2.7 14.46C2.7 15.21 2.09 15.81 1.35 15.81ZM1.35 28.93C0.6 28.93 0 28.33 0 27.58C0 26.84 0.6 26.23 1.35 26.23C2.09 26.23 2.7 26.84 2.7 27.58C2.7 28.33 2.09 28.93 1.35 28.93ZM1.35 42.05C0.6 42.05 0 41.45 0 40.7C0 39.95 0.6 39.35 1.35 39.35C2.09 39.35 2.7 39.95 2.7 40.7C2.7 41.45 2.09 42.05 1.35 42.05ZM1.35 55.17C0.6 55.17 0 54.56 0 53.82C0 53.07 0.6 52.47 1.35 52.47C2.09 52.47 2.7 53.07 2.7 53.82C2.7 54.56 2.09 55.17 1.35 55.17ZM1.35 68.29C0.6 68.29 0 67.68 0 66.94C0 66.19 0.6 65.59 1.35 65.59C2.09 65.59 2.7 66.19 2.7 66.94C2.7 67.68 2.09 68.29 1.35 68.29ZM1.35 81.4C0.6 81.4 0 80.8 0 80.05C0 79.31 0.6 78.7 1.35 78.7C2.09 78.7 2.7 79.31 2.7 80.05C2.7 80.8 2.09 81.4 1.35 81.4ZM1.35 94.52C0.6 94.52 0 93.92 0 93.17C0 92.43 0.6 91.82 1.35 91.82C2.09 91.82 2.7 92.43 2.7 93.17C2.7 93.92 2.09 94.52 1.35 94.52ZM1.35 107.64C0.6 107.64 0 107.04 0 106.29C0 105.54 0.6 104.94 1.35 104.94C2.09 104.94 2.7 105.54 2.7 106.29C2.7 107.04 2.09 107.64 1.35 107.64ZM1.35 120.76C0.6 120.76 0 120.15 0 119.41C0 118.66 0.6 118.06 1.35 118.06C2.09 118.06 2.7 118.66 2.7 119.41C2.7 120.15 2.09 120.76 1.35 120.76ZM1.35 133.88C0.6 133.88 0 133.27 0 132.53C0 131.78 0.6 131.18 1.35 131.18C2.09 131.18 2.7 131.78 2.7 132.53C2.7 133.27 2.09 133.88 1.35 133.88ZM1.35 147C0.6 147 0 146.39 0 145.64C0 144.9 0.6 144.29 1.35 144.29C2.09 144.29 2.7 144.9 2.7 145.64C2.7 146.39 2.09 147 1.35 147Z" fill="#FFFFFF" fill-opacity="1.000000" fill-rule="evenodd"/>
</svg>
