<svg width="17.100098" height="17.100098" viewBox="0 0 17.1001 17.1001" fill="none" xmlns="http://www.w3.org/2000/svg" xmlns:xlink="http://www.w3.org/1999/xlink">
	<desc>
			Created with Pixso.
	</desc>
	<defs/>
	<path id="WhatsApp" d="M17.1 8.32C17.1 12.93 13.34 16.65 8.7 16.65C7.28 16.66 5.89 16.3 4.64 15.62L0 17.1L1.51 12.63C0.72 11.33 0.3 9.84 0.31 8.32C0.31 3.72 4.06 0 8.7 0C13.34 0 17.1 3.72 17.1 8.32ZM8.7 1.32C4.81 1.32 1.64 4.46 1.64 8.32C1.64 9.86 2.14 11.28 2.99 12.43L2.11 15.03L4.82 14.17C5.97 14.93 7.32 15.33 8.7 15.33C12.59 15.33 15.76 12.19 15.76 8.33C15.76 4.46 12.59 1.32 8.7 1.32ZM12.94 10.24C12.89 10.16 12.75 10.11 12.55 10C12.34 9.9 11.33 9.41 11.14 9.34C10.95 9.27 10.81 9.24 10.68 9.44C10.54 9.65 10.14 10.11 10.02 10.24C9.9 10.38 9.78 10.4 9.58 10.29C9.37 10.19 8.71 9.98 7.92 9.28C7.31 8.74 6.9 8.07 6.78 7.87C6.66 7.66 6.77 7.55 6.87 7.45C6.96 7.36 7.08 7.21 7.18 7.09C7.28 6.97 7.32 6.89 7.38 6.75C7.45 6.62 7.42 6.5 7.37 6.4C7.31 6.29 6.9 5.29 6.73 4.88C6.56 4.47 6.39 4.54 6.27 4.54C6.15 4.54 6.01 4.52 5.87 4.52C5.74 4.52 5.51 4.57 5.33 4.78C5.14 4.98 4.61 5.48 4.61 6.48C4.61 7.49 5.34 8.46 5.45 8.59C5.55 8.73 6.87 10.86 8.96 11.67C11.05 12.49 11.05 12.22 11.43 12.18C11.81 12.15 12.65 11.69 12.82 11.21C12.99 10.74 12.99 10.33 12.94 10.24Z" fill="#FFD25A" fill-opacity="1.000000" fill-rule="nonzero"/>
</svg>
